<svg version="1.1" xmlns="http://www.w3.org/2000/svg" xmlns:xlink="http://www.w3.org/1999/xlink" x="0px" y="0px"
	 viewBox="0 0 1799 2399" style="enable-background:new 0 0 1799 2399;" xml:space="preserve">
<style type="text/css">
	.region{fill:#888888;stroke:#ffffff;stroke-width:3px;}
	.red{fill:#FF0000;}
	.label{font-family:sans-serif;font-size:60px;}
	.line{fill:none;stroke:#000000;stroke-width:2;stroke-miterlimit:10;}
</style>
<g id="map">
	<path class="region" data-region="bari" d="M1547.5,646c-0.1,0-0.3,0-0.4-0.1c-0.5-0.1-0.9-0.5-1-1c-0.9-2.9-1.7-5.7-2.5-8.5c-2-6.5-3.9-12.7-5.5-19
		c-1.5-5.7-3.7-10-9.7-12.2c-0.7-0.3-1.4-0.5-2-0.8c-3.6-1.3-7-2.6-10.8-3.2c-3.6-0.6-7.2-0.7-10.8-0.7c-2.9-0.1-6-0.1-9-0.5
		c-2-0.2-4-0.3-6.2-0.3c-5.2-0.1-10.6-0.2-15.7-3.5c-3.5-2.3-7.1-4.6-10.5-6.7c-8.1-5.2-16.5-10.5-24.5-16.3
		c-11-8-18-19.4-21.4-34.7c-1.7-7.6-2.6-15.5-3.5-23.2c-0.3-2.5-0.6-5-0.9-7.5l-1-17.7c-0.2-6.7-0.7-13.4-1.1-20
		c-0.7-11.8-1.5-24-1.2-36.1c0.1-2.7,0-5.6-1.1-6.7c-0.3-0.3-0.4-0.6-0.4-1l-0.7-11.5c0,0,0-0.1,0-0.1c0-0.4,0-0.9,0-1.4
		c0-10-0.4-20.2-0.8-30l-0.2-5.7c-0.5-12.9-0.7-26-0.9-38.7c-0.3-14.7-0.5-30-1.2-45c-0.6-12.1-0.6-24.3-0.6-36.2
		c0-9.4-0.1-19.1-0.3-28.7c-0.3-9.1-0.9-19.9-3.7-30.2c-5.2-19.7-10-39.2-14.4-58.1c-1.4-6.1-4-9.6-8.7-11.4
		c-0.7-0.3-1.1-1.1-0.9-1.8c0.2-0.7,0.8-1.1,1.4-1.1c0.1,0,0.2,0,0.2,0c4.2,0.7,8.3,1,12.4,1c9.1,0,17.9-1.7,26.8-5.1
		c4.9-1.9,10.3-2.5,15.5-3.2c0.8-0.1,3.1-0.4,3.1-0.4c5.9-0.7,11.5-1.4,15.7-5.7c1.2-1.2,2.6-1.8,4.2-1.8c0.6,0,1.2,0.1,1.8,0.2
		c1.9,0.4,3.8,0.6,5.7,0.6c7.3,0,13.7-3,20.5-6.2c2.8-1.3,5.7-2.7,8.6-3.8c3.4-9.4,11.1-10.4,17.9-11.3c3.5-0.4,6.7-0.9,9.5-2.2
		c0.8-0.4,1.7-0.6,2.7-0.6c1.9,0,3.6,0.7,5.2,1.4l0.1,0c3.4,1.4,6.7,2.1,10.3,2.1c5.8,0,11.8-1.8,19-5.7c5.2-2.8,10-4.1,15.3-4.1
		c0.8,0,1.7,0,2.6,0.1c2.3,0.2,4.8,0.3,7.2,0.3c8.9,0,14.7-2.2,19.3-7.4c1.1-1.2,3-2.1,4.7-2.1c10.4-0.2,18.2-5.5,26.7-11.7
		c4.5-3.3,9.8-5.6,14.9-7.7l1.1-0.5c8.5-3.6,14.8-10.5,17.4-19c0.4-1.4,0.8-2.8,1.1-4.2c0.4-1.5,0.7-3,1.2-4.5
		c3.9-12.9,11.5-18.7,26.4-20.1c4-0.4,8-2.4,11.9-4.3c1.1-0.5,2.1-1.1,3.2-1.5c1.4-0.7,2.9-1.3,4.6-1.3c1.5,0,2.9,0.5,4.3,1.6
		c3.5,2.8,8,3.7,12.2,4.5c7.8,1.5,16.9,3.9,24.4,10l0.3,0.3c1.9,1.6,3.9,3.2,6,3.2c0.2,0,0.3,0,0.5,0c1.4-0.2,2.7-0.3,4.1-0.3
		c6.8,0,13.2,2.1,19.4,4c1.7,0.5,3.4,1.1,5,1.6l1.7,0.5c5,1.5,7.5,2.2,8.2,4.3c0.8,2.1-0.8,4.4-4.1,9.4c-1.6,2.4-2.2,5.2-1.7,8.4
		c0.9,6.5-1.4,12.3-6.8,17.2c-3.3,2.9-5.1,6.6-7.1,10.5c-1.6,3.2-3.2,6.5-5.7,9.3c-0.4,0.5-0.7,1.7-0.6,2.6
		c1.3,8.7-2.4,15.8-6,22.7c-1.7,3.2-2.3,6-2,8.7c0.5,4.4-0.1,8.5-1.1,13.3c-1.6,7.6,0.2,10.3,8.2,12.4c4.8,1.3,7.3,2,8.2,4.1
		c0.9,2.1-0.3,4.6-2.4,8.6c-6.2,11.8-8,22.5-5.5,33.6c0.9,3.9,0.7,8.1,0.5,12.1c-0.1,1.4-0.1,2.8-0.2,4.2
		c-0.2,14.9,1.9,27.2,6.2,37.4c0.2,0.5,0.1,1-0.2,1.5c-1.8,2.5-3.8,3-5.2,3.3c-0.2,0.1-0.5,0.1-0.7,0.2c-3.2,0.9-4.3,2.6-4.2,6.8
		c0.3,9.2-0.3,10-9.2,12.8c-3,1-5,2.7-6.2,5.6c-0.3,0.6-0.3,0.9,0.1,1.3c0.6,0.3,1,0.7,1.3,1.3l1.8,2.5c0.3,0.4,0.3,0.8,0.2,1.3
		s-0.4,0.8-0.8,1c-1.7,0.8-3.4,1.6-5.2,2.3c-3.9,1.8-8,3.6-11.9,5.6c-4.7,2.4-6.7,5.7-6.1,10.5c0.5,4.2,0.5,8.6,0.5,12.7l0,1.4
		c0,0.5,0,1.1,0,1.6c0.1,2.4,0.2,4.9-0.9,6.9c-3.6,7-1.9,13.5,0.1,20.9c1.9,7.1-0.6,14.3-2.7,20.6c-0.4,1.1-0.8,2.3-1.1,3.4
		c-3.7,11.6-6.2,23.7-7.6,37c-0.3,2.8-0.7,6-2,9.1c-3.6,8.3-3.1,16.9,1.5,25.7c2.9,5.7,2.6,10.2-1,15.3c-2.4,3.3-4.4,6.9-6.4,10.4
		c-0.8,1.3-1.5,2.7-2.3,4c-2,3.4-4.5,5.6-8,7c-9.7,3.8-14.8,11.9-13.7,21.6c1.1,10.2-1.9,17.2-10,23.6c-1.7,1.3-3.4,2.6-5.1,3.9
		c-4,3-8.1,6.1-11.8,9.3c-7.5,6.5-12.8,15.5-14.7,25.4c-1.6,8.1-4.1,17.4-10.8,25.1c-3.3,3.8-4.5,8.4-3.7,13.7
		c1.1,7.3-1.7,13.6-8.2,18.8c-6.5,5.1-10.1,12-13.9,19.3c-0.9,1.7-1.8,3.5-2.8,5.2c-0.2,0.3-0.4,0.7-0.5,1c-0.9,1.8-2,4-5.3,4
		l-0.2,0c-0.5,0-1-0.3-1.2-0.7c-2-3.3-4.8-6-7.7-8.8c-0.7-0.7-1.4-1.3-2.1-2c-6.1-6-12.9-9.3-20.8-9.9c-0.7-0.1-1.2-0.1-1.8-0.1
		c-3,0-5.4,0.7-7.6,4.2l-0.6,1c-3.6,5.8-7.3,11.7-13.3,16.9C1548.2,645.8,1547.9,646,1547.5,646z"/>
	<path class="region" data-region="sanaag" d="M1027.7,448.8c-4.3,0-8.2-1.6-12.7-5.2c-50.3-40.4-91.1-72.9-128.5-102.6c-6.7-5.3-9.2-10.7-8.5-18.2
		c1.2-12.4,1.5-25.1,1.7-37.3c0.3-11.6,0.5-23.5,1.5-35.3c0.8-8.8,0.7-17.8,0.7-26.6l0-4.2c0-2.3,0.3-3.9,1-5.1
		c0.6-1.1,1.8-2.3,4.2-2.3c0.9,0,2,0.2,3.2,0.6c1.2,0.4,2.4,0.6,3.7,0.6c2.6,0,5.1-0.8,7.8-1.6c1.4-0.4,2.8-0.8,4.2-1.1
		c2.2-0.5,4.8-1,7.3-1c4.4,0,7.9,1.5,10.7,4.5c7.6,8.6,14.9,12.6,22.9,12.6c5.2,0,10.9-1.6,17.6-4.9c5.5-2.7,10.5-4,15.3-4
		c0.2,0,0.5,0,0.7,0c0.2,0,0.4,0,0.5,0c5,0,9-2,12.6-4.2c3.5-2.1,7.2-4.1,10.7-6c6.8-3.7,13.7-7.5,19.6-12.3
		c7-5.7,15-9.3,22.7-12.9c2-0.9,4.1-1.9,6.1-2.8c8.2-3.9,15.5-7.7,20.4-13.6c4-4.7,8.9-7,13.7-9.2c2.6-1.2,5-2.3,7.3-3.7l1.2-0.7
		c6.4-4.1,13-8.3,20.3-10.4c5.6-1.6,11.6-3.1,17.7-3.1c6.3,0,11.9,1.6,17,5c2.1,1.4,4.3,2.4,6.7,3.5c2.7,1.3,5.5,2.6,8.2,4.4
		c2.3,1.6,4.7,2.4,7.3,2.4c2.4,0,4.8-0.7,7.1-2.2c3.8-2.4,7.9-2.5,11.8-2.5c0.8,0,1.5,0,2.3,0c1.2,0,2.4-0.1,3.7-0.1
		c3.2,0,6.5,0.1,9.6,0.3c3.1,0.1,6.3,0.2,9.5,0.2c5.6,0,10.2-0.4,14.3-1.3c2.4-0.5,5-0.8,8.4-0.8c1.4,0,2.7,0,4.1,0.1l1.7,0
		c0.2,0,0.4,0,0.5,0c5.6,0,9.7-2,12.9-6.2c3.3-4.3,7.2-8.2,13.4-8.2c0.7,0,1.4,0,2.1,0.1c0.3,0,0.5,0.1,0.8,0.1
		c2.3,0,4.2-1.2,5.1-3.2c3.5-7.7,10.3-8.4,16.3-9c1.2-0.1,2.4-0.2,3.5-0.4c0.2,0,0.4,0,0.7,0c0.8,0,1.5,0.2,2.3,0.4
		c0.6,0.1,1.1,0.3,1.6,0.3c0.4,0,0.5-0.1,0.7-0.2c5.5-3.9,11.7-4.4,17.6-4.9c3-0.3,5.8-0.5,8.5-1.2c3.3-0.8,6-1.1,8.4-1.1
		c3.4,0,6.3,0.7,9.1,2.1c4.4,2.3,9.3,3.6,14,5c5,1.4,10.2,2.8,14.9,5.4c5.6,2.2,8.8,6.4,10.4,13.5c4.3,18.8,9.1,38.3,14.4,58
		c2.8,10.7,3.5,21.6,3.8,30.9c0.3,9.6,0.3,19.3,0.3,28.7c0,11.9,0.1,24.1,0.6,36.1c0.7,15.1,1,30.4,1.2,45.2
		c0.2,12.6,0.4,25.7,0.9,38.5l0.2,5.3c0.4,10,0.8,20.4,0.8,30.6c0,8.8-1.6,10.4-10.7,10.9c-2.6,0.1-5.1,0.3-7.7,0.4l-3.3,0.1
		l-0.5,0c-1.4,0-2.7-0.1-4-0.2c-1.3-0.1-2.6-0.2-3.8-0.2c-2.7,0-4.7,0.4-6.5,1.3c-0.2,0.1-0.4,0.1-0.6,0.2l-16.6,0.8
		c-0.6,0-1.2,0.1-1.9,0.1c-1.4,0-2.7-0.1-4-0.2c-1.3-0.1-2.6-0.2-3.8-0.2c-2.9,0-5.1,0.4-7,1.4c-0.2,0.1-0.4,0.2-0.6,0.2l-16.6,0.7
		c-0.3,0-0.5,0-0.8,0c-0.9,0-1.8-0.1-2.7-0.1c-0.9-0.1-1.7-0.1-2.5-0.1c-2,0-3.3,0.3-4.6,1.2c-0.2,0.1-0.5,0.2-0.7,0.2
		c-7.1,0.5-14.2,1-21.4,1.5c-16.1,1.1-32.8,2.2-49.1,3.6c-15.2,1.3-30.6,2.2-45.5,3c-5.7,0.3-11.4,0.6-17.1,1
		c-10.2,0.6-20.5,1.2-30.7,1.9c-23.5,1.4-47.7,2.9-71.6,4.4c-4.5,0.3-9.1,0.5-13.5,0.6c-10.5,0.4-21.4,0.8-31.9,2.7
		C1029.8,448.7,1028.7,448.8,1027.7,448.8z"/>
	<path class="region" data-region="galgaduud" d="M1058.4,1497.7c-0.3,0-0.5-0.1-0.8-0.2c-1.3-0.8-2.6-1.6-4-2.4c-2.6-1.6-5.3-3.2-7.9-4.9
		c-9.7-6.3-19.4-12.6-29.1-18.9c-22.1-14.4-44.9-29.2-67.4-43.7c-4.9-3.2-6.5-6.7-5.6-12.1c0.1-0.5,0.2-0.9,0.3-1.4
		c0.8-4.5,1.6-8.8-0.9-12.7c-0.2-0.3-0.3-0.7-0.2-1c0.9-5.8,0.9-11.9,0-18.5c0-0.3,0-0.7,0.2-1c4.4-6.9,3.5-15.9-2-20.5
		c-2.3-1.9-4.6-3.9-6.9-5.8c-6.7-5.6-13.5-11.4-20.8-16.3c-9.7-6.6-14-14.5-13.8-24.9c0-0.3,0-0.5,0-0.8c0.1-2.7,0-3.8-1.8-4.6
		c-0.7-0.3-1.1-1.1-0.9-1.8l0.6-2.3c-0.5-0.3-0.9-0.9-0.8-1.5c0.1-0.9,0.3-1.8,0.5-2.6c0.7-3,0.9-4.5-1.6-5.8
		c-0.5-0.3-0.8-0.8-0.8-1.3l-0.1-4.5c0-0.4,0.1-0.7,0.4-1c0.2-0.2,0.4-0.4,0.6-0.6c0,0,0.1-0.1,0.1-0.1
		c-2.4-10.2,2.1-18.7,6.4-26.9l1.4-2.7c2.1-4,4.3-8.1,6.1-12.2c3.5-8.2,4.3-17,5.2-26.3c0.1-1.2,0.2-2.4,0.3-3.6
		c-2.2,0.5-4.3,1-6.3,1.5c-5.9,1.4-11.5,2.7-16.8,4.5c-3.3,1.1-6.6,1.6-9.9,1.6c-2.7,0-5.5-0.4-8.4-1.1c-15.4-3.8-28.3-7-41.6-10
		c-5.5-1.2-8.9-4.1-11.3-9.1c-7.3-16-15.1-32.4-23.8-50.4c-1.3-2.6-1.3-5.1-1.4-7.6c0-0.6,0-1.2-0.1-1.7c0-0.4,0.1-0.7,0.3-1
		c0.6-0.8,0.9-1.1,1.6-1.2c1.4-0.1,1.9-0.6,1.9-2c0-0.7,0.5-1.3,1.3-1.4c1.3-0.2,2.2-1.1,3.2-2.1c0.8-0.8,1.6-1.5,2.6-2.1
		c4.3-2.8,7.9-6.7,11.4-10.4c1.1-1.2,2.2-2.4,3.4-3.5c0.9-0.9,1.9-1.8,2.9-2.6c2.7-2.3,5.2-4.4,5.9-7.9c0.1-0.3,0.2-0.6,0.4-0.8
		l1.1-1.1c12.9-12.7,26.3-25.9,38.7-39.5c0.1-0.1,0.2-0.2,0.3-0.2c4.5-3,8.2-6.9,11.8-10.8c1-1,2-2.1,2.9-3.1
		c1.2-1.2,2.4-2.3,3.7-3.4c3.1-2.7,6-5.2,7.2-9c0-0.3,0.1-0.5,0.3-0.7l1.5-1.9c0-0.1,0.1-0.1,0.1-0.2c12.3-11.6,24.7-24.2,38-38.6
		c0.1-0.1,0.2-0.2,0.3-0.2c4.6-3.1,8.5-7.2,12.2-11.2c1.3-1.4,2.7-2.8,4-4.2c0.9-0.9,2-1.8,2.9-2.7c2.9-2.5,5.6-4.9,6.6-8.6
		c0.1-0.2,0.2-0.5,0.4-0.7c0.5-0.5,1-1,1.6-1.5c1.2-1.1,2.2-2.2,3.2-3.3c2.1-2.5,4.4-3.6,7.5-3.6c1.1,0,2.4,0.2,3.8,0.5
		c24.8,5.7,50,11.3,74.3,16.8c7.6,1.7,15.3,3.4,22.9,5.1c0,0,49.8,11.2,67.1,15c0.5,0.1,1.1,0.2,1.7,0.3c1.1,0.2,2.3,0.4,3.4,0.8
		c2.5,0.9,4.2,1.7,4.9,3.4c0.8,1.8,0.1,3.9-1.3,7c-3.7,8-7.5,16.1-11.2,23.9c-1.6,3.5-3.3,7-4.9,10.4c-2,4.2-4,8.4-5.9,12.7
		c-5.1,11-10.4,22.3-15.8,33.4c-1.8,3.6-1.7,5.8,0.4,8.4c17,21.3,26.3,46.1,32.5,65.3c0.3,0.8,0.5,1.6,0.8,2.4
		c1.1,3.6,2.2,7.2,4,10.4c6.7,12.1,5.4,24.3,3.3,36.8c-5,29.5-9.6,59.6-13.5,85.5c-0.3,1.8-0.8,3.6-1.2,5.3
		c-1.2,4.4-2.3,8.6-0.1,12c2,3,5.8,4.2,9.8,5.5c1.8,0.6,3.6,1.2,5.3,1.9c8.5,3.8,17.2,7.7,25.6,11.4c3.3,1.5,6.7,2.9,10,4.4
		l0.6,0.2c1.8,0.8,4,1.7,4.6,4.5c0.1,0.4,0,0.8-0.2,1.1l-1.7,2.7c0,0.5-0.2,1-0.6,1.3c-6.4,4.6-11.8,10.8-16.9,19.5
		c-3.2,5.5-8.1,9.5-12.8,13.4c-0.7,0.6-1.4,1.2-2.1,1.7c-5.3,4.4-9.4,9.2-12.6,14.4c-10.5,17.5-25.5,31.2-40,44.4l-0.5,0.5
		c-1.6,1.4-3.1,2.8-4.7,4.2c-9.9,8.9-20.2,18.1-26.8,30.2l-1.3-0.7l0.7,0.9l-2.9,2.3c0,0-0.9,1.2-1.3,1.8c0,0.4-0.1,0.7-0.4,1
		l-5.7,6.2c-0.1,0.3-0.3,0.6-0.5,0.8c0,0-1.6,1.3-2.2,1.7c-0.1,0.2-0.2,0.4-0.4,0.6c0,0-2.5,2.2-3.5,3
		C1059.1,1497.5,1058.8,1497.7,1058.4,1497.7z"/>
	<path class="region" data-region="lower juba" d="M102.4,2392.9c-0.4,0-0.7-0.1-1-0.4c-0.4-0.4-0.6-0.9-0.5-1.4c0.5-2.6-0.9-4.5-2.7-6.9
		c-22.6-30.3-45.6-61.1-67.8-90.9L16.8,2275c-1.3-1.8-2.6-3.6-4-5.4c-2.9-4-5.9-8.2-9.1-12c-2.9-3.5-2.8-7.3-2.8-10.9
		c0-0.5,0-0.9,0-1.4c0-12.6,0.1-25.5,0.2-37.9c0.3-28.1,0.5-57.2-0.7-85.6c-0.9-21.7-1.1-43.8-1.3-65.1
		c-0.1-14.2-0.2-28.9-0.6-43.3c0-0.1,0-0.1,0-0.2c1-8.9,1-18.1,0-27.2c0-0.1,0-0.1,0-0.2l0.2-16.2c0.7-11.7,0.7-23.7,0-35.8
		c0-0.1,0-0.1,0-0.2c0.3-4.1,0.1-8.3,0-12.3c-0.2-7.1-0.4-14.4,1.4-21.7c1-4.1,2.2-7.2,8.2-7.5l6.4-0.3c16.9-0.9,34.5-1.7,51.5-3.8
		c6.3-0.8,12.8-1,19-1.3c7.3-0.3,14.9-0.6,22.3-1.8c7.9-1.2,16-1.2,23.8-1.3c4.2,0,8.6,0,12.9-0.3l0.6,0c5.3-0.3,10.9-0.5,16.1-1.3
		c6.7-1,13.5-1.2,20.1-1.5c6.3-0.2,12.9-0.5,19.3-1.4c5.1-0.7,10.7-1.1,17.1-1.1c1.3,0,2.5,0,3.8,0c1.7,0,3.2,0.1,4.8,0.1
		c3.7,0,8.1-0.2,12.6-1.3c1.9-0.5,3.4-0.7,4.7-0.7c4.6,0,6.4,2.9,7.8,7.3c4.4,13.9,9.2,28,13.9,41.6c9.5,27.5,19.2,56,25.8,85
		c1.3,5.7,2.7,11.5,4.1,17.1c1.8,7.1,3.6,14.4,5.1,21.6c0.8,3.9,2.4,5.1,6.5,5.1l0.3,0c3.3,0,6.8-0.1,10.7-0.1
		c4.8,0,9.6,0,14.4,0.1c4,0,7.9,0.1,11.9,0.1c4.3,0,8.6,0,12.9,0l19.1,0c0.4,0,0.8,0.2,1.1,0.5c0.3,0.3,0.4,0.7,0.4,1.1
		c0,0.1,0,0.3,0,0.5c0.1,0.7,0.2,1.6-0.5,2.4c-5.7,6.2-11.5,12.5-17.3,18.7c-10.4,11.3-21.2,23-31.7,34.6c-1.9,2.1-3.7,4.2-5.6,6.3
		c-6.4,7.3-12.9,14.8-20.8,21c-6.1,4.8-11.9,10.4-16.7,15.1c-1.2,1.2-2.5,2.3-3.7,3.4c-3.9,3.4-7.5,6.5-9.1,11.7
		c-0.8,2.7-3.1,4.3-5.2,5.8c-1.6,1.1-3.1,2.1-4,3.5c-5.3,7.9-11.8,14.8-18.2,21.5c-3.7,3.9-7.5,8-11,12.1c-1.3,1.5-2.6,3-3.9,4.5
		c-5.3,6.1-10.7,12.4-14.6,19.5c-1.4,2.5-3.1,4.6-4.7,6.6c-0.8,1-1.6,2-2.4,3.1c-4.9,6.7-10.3,9.9-16.9,9.9c-0.6,0-1.3,0-1.9-0.1
		c-0.3,0-0.5,0-0.8,0c-0.6,0-1,0.1-1.2,0.2c0,0.2,0.1,0.6,0.7,1.5c0.1,0.2,1.1,1.8,0.5,3.3c-3.1,6.9-7.4,13-11.9,19.4
		c-0.9,1.3-1.9,2.7-2.8,4.1c-0.3,0.4-0.7,0.6-1.2,0.6c0,0,0,0-0.1,0c-0.5,0-1-0.3-1.2-0.8c-3.2-5.7-4.2-7.4-4.8-11.9
		c-1.1,4.8-0.7,8.8,1.1,12.3c3,6,0.8,10.5-2.1,14.4c-2.1,2.9-4,6.1-5.9,9.1c-2.6,4.4-5.3,9-8.9,13c-0.3,0.3-0.7,0.5-1.1,0.5
		c-0.1,0-0.1,0-0.2,0c-2.3-0.3-3.1-2.2-3.6-3.5c-0.4-0.9-0.6-1.3-0.9-1.6c-0.5,0.8-0.2,1.7,0,1.9c4.5,7.5,0.5,14-2.4,18.7
		c-2.2,3.6-4.4,7.2-6.6,10.8c-7.3,12-14.9,24.4-22.6,36.5c-1.9,3-5,7.2-10.1,9C102.7,2392.9,102.5,2392.9,102.4,2392.9z"/>
	<path class="region" data-region="woqooyi galbeed" d="M644.1,562.3c-0.2,0-0.3,0-0.5-0.1c-8.6-2.8-17.3-5.5-25.7-8.2c-20.5-6.5-41.8-13.3-62.4-20.6
		c-15.4-5.4-28.6-15.3-38.4-23.3c-4.9-4-9.7-8.2-14.4-12.2c-9.6-8.3-19.5-16.9-30.4-24c-3.8-2.4-6.9-5.7-10-8.8
		c-2-2.1-4.1-4.2-6.3-6c-3.6-3-7.8-5.1-11.9-7.1c-4.3-2.1-8.7-4.4-12.6-7.6c-0.5-0.5-1.1-0.9-1.7-1.3c-2.2-1.7-4.7-3.5-5.3-6.8
		c-1.1-6.3-5.2-10.3-9.6-14.6c-1-1-2-2-2.9-3c-0.4-0.5-0.9-0.9-1.3-1.4c-2.8-2.9-6.1-6.1-6.3-11.1c0-0.3,0.1-0.7,0.3-1l31.7-43.3
		c3.5-4.8,7.1-9.7,10.6-14.5c9.8-13.5,20-27.4,30.1-41c2.8-3.7,4.3-5.8,7.1-5.8c1.7,0,3.6,0.8,6.7,2.2c6.3,2.8,12.8,5.8,18.9,8.6
		c5.1,2.4,10.4,4.8,15.6,7.1c2.8,1.2,4.5,2,5.6,2c1.1,0,1.9-1,4.3-4.1l0.3-0.4c9.4-12,17.7-25.5,25.4-41.3c0.3-0.7,0.6-1.4,0.9-2.2
		c1.1-2.7,2.3-5.8,5.7-7.4c0.2-0.1,0.4-0.1,0.6-0.1c0.3,0,0.5,0.1,0.8,0.2l3.6,2.1l3.6,1.5l0.5,0.2c1.2,0.6,2.4,1.2,3.6,1.8
		l0.4,0.2c4.7,1.7,9.1,3.3,13.8,3.3c2.3,0,4.4-0.4,6.5-1.1c1.6-0.6,3.5-0.9,5.5-0.9c2.4,0,4.9,0.4,7.2,1.2c2.5,0.8,5.1,1.2,7.8,1.2
		c3.4,0,7.1-0.6,11.5-2c7-3.4,14.2-5.1,21.4-5.1c6.2,0,12.6,1.3,19.1,3.7c4.5,1.7,8.8,2.6,12.8,2.6c7.9,0,14.9-3.3,20.8-9.8
		c4.4-4.9,9.4-7.7,15.3-8.5c3-0.4,5.3-1.7,7.7-4.1c0.2-0.2,0.4-0.4,0.6-0.6c0.8-0.9,1.8-2,3.1-2.3c6-1.6,10.3-5.7,14.8-10
		c1.2-1.1,2.4-2.2,3.6-3.3c2.9-2.6,6.2-3.9,9.9-3.9c0.7,0,1.4,0,2.2,0.1c1.6,0.2,3.2,0.3,4.7,0.3c11.5,0,21.7-5.2,31-16l0.1-0.1
		c1.3-1.5,2.8-3.3,4.8-3.4c6.2-0.5,10.9-3.7,15.9-7.1c1.7-1.2,3.5-2.4,5.3-3.4c1.9-1.1,3.1-2.1,4.2-3.3c3-3.3,5.5-4.8,8-4.8
		c2.4,0,4.6,1.3,7.1,4.2c0.6,0.7,1.2,1.5,1.7,2.2c1.3,1.9,2.2,3,3.6,3c0.9,0,2.1-0.5,3.5-1.4c0.5-0.3,1.2-0.5,2-0.5
		c3.6,0,9.4,3.9,11.1,5.2c3.9,2.8,8,3.2,12.3,3.4c0.8,0,1.4,0.7,1.4,1.4c0.4,10.8,0.8,23-0.8,35c-1,7.3-0.8,14.9-0.6,21.6
		c0.2,10.3-0.4,20.7-1.1,30.8c-0.5,8.1-1.1,16.6-1.1,24.8c0,5.6-0.5,9.6-5.9,9.6c-1.1,0-2.6-0.2-4.6-0.5c-13.5-2.5-27.5-3.5-41-4.6
		c-9.8-0.8-20-1.5-29.9-2.8c-0.8-0.1-1.7-0.2-2.8-0.2c-1,0-2,0-3,0.1c-1,0-1.9,0.1-2.9,0.1l-10.8-0.2c-0.3,0-0.6-0.1-0.9-0.3
		c-0.3-0.2-0.6-0.5-0.8-0.8c-0.2-0.2-0.5-0.5-0.7-0.6c-6-0.5-12-1.1-18-1.6c-10.3-0.9-21-1.8-31.4-2.9c-0.6-0.1-1.2-0.1-1.7-0.1
		c-4.1,0-7.2,1.7-10.6,5.7c-11.4,13.4-20.9,24.1-29.7,33.7c-8.6,9.4-14.1,19.6-16.6,31.3c-5.1,23.1-11,46.2-16.8,67.6
		c-2.5,9.5-3.7,19.3-3.6,30c0.2,17.5,0.1,35.3,0.1,52.6c0,7.1,0,14.2,0,21.2c0,0.5-0.2,0.9-0.6,1.2
		C644.8,562.2,644.5,562.3,644.1,562.3z"/>
	<path class="region" data-region="nugaal" d="M1308.5,802.9c-1.7,0-3.4-0.1-5.3-0.5c-34.1-5.7-68.8-11.2-102.3-16.5c-13.7-2.2-27.4-4.4-41.1-6.6
		c-0.9-0.2-1.8-0.5-3-0.9c-0.6-0.2-1.4-0.5-2.3-0.8c-0.5-0.2-0.8-0.6-1-1.1c-0.1-0.5,0-1,0.4-1.4c21.2-23,42.3-44.3,64.5-66.9
		c3.1-3.1,6.2-6.3,9.3-9.5c-1.4-0.3-2.7-0.4-3.7-0.4c-0.7,0-1.4,0-2,0.1c-0.7,0-1.3,0.1-2,0.1l-0.4,0c-0.6,0-1.1-0.4-1.4-0.9
		s-0.1-1.2,0.3-1.6c2.1-2.1,4.2-4.3,6.2-6.4c5.4-5.5,11-11.2,16.4-16.9c0.6-0.6,1.2-1.2,1.8-1.7c1.4-1.3,2.7-2.5,3.6-4.1l-13-3.3
		c-0.5-0.1-0.9-0.5-1.1-1c-0.2-0.5,0-1,0.3-1.4c1.8-2.1,3.6-4.1,5.3-6.1c3.6-4.2,7.1-8.2,10.7-12c6.6-6.9,13.5-13.8,20.1-20.4
		c14.3-14.4,29.2-29.4,42.6-45c6.4-7.4,13.2-10.9,21.4-10.9c2.6,0,5.4,0.3,8.5,1c1,0.2,2,0.3,2.8,0.3c3.4,0,5.6-1.8,8.4-5
		c11.9-13.6,24.9-26.4,37.6-38.8c6.5-6.4,13.3-13,19.8-19.6c0.7-0.7,1.5-0.9,2.5-1.2c0.4-0.1,0.8-0.2,1.3-0.4
		c0.2-0.1,0.3-0.1,0.5-0.1c0.3,0,0.5,0.1,0.8,0.2c0.4,0.2,0.6,0.6,0.7,1.1c0.5,3.5,0.9,7.1,1.3,10.5c0.9,7.9,1.8,15.4,3.4,22.8
		c3.3,14.6,9.9,25.4,20.2,33c7.8,5.7,16.2,11,24.2,16.1c3.5,2.2,7.1,4.5,10.6,6.8c4.4,2.9,9.1,2.9,14.1,3c2.1,0,4.3,0.1,6.5,0.3
		c2.9,0.3,5.7,0.4,8.7,0.4c3.6,0.1,7.4,0.1,11.2,0.8c4.1,0.7,7.8,2,11.3,3.4c0.7,0.3,1.4,0.5,2.1,0.8c7.6,2.8,10.1,8.8,11.5,14.2
		c1.6,6.2,3.5,12.3,5.4,18.8c0.6,2.1,1.3,4.2,1.9,6.3c4.7-4.5,7.9-9.6,10.9-14.6l0.6-1c2.5-4,5.5-5.6,10.1-5.6c0.6,0,1.3,0,2,0.1
		c8.6,0.7,16,4.2,22.6,10.8c0.7,0.7,1.4,1.3,2.1,2c2.9,2.8,6,5.7,8.2,9.4c0.3,0.6,0.3,1.3-0.1,1.7c-2,2.4-3.2,5.3-3.8,9.2
		c-1.8,12.7-8.3,21.7-19.2,26.5c-14.1,6.3-24,17.2-34.4,29.8c-4.9,5.9-5.9,13.7-2.8,23.2c2.4,7.4,1.6,12.4-2.8,17.5
		c-3.8,4.4-6.6,9.7-8.8,16.9c-2.3,7.5-6.1,14.4-9.8,21.1c-2.2,3.9-4.4,8-6.3,12.2c-0.1,0.3-0.4,0.6-0.7,0.7
		c-0.8,0.4-1.7,0.7-2.4,0.7c-2.2,0-3.4-1.7-4.4-2.9c-0.2-0.3-0.4-0.6-0.7-0.8c-2.5-2.9-5-5.8-7.5-8.7c-2.6-3.1-5.3-6.3-8.1-9.4
		c-0.2-0.3-0.4-0.5-0.7-0.8c-1.6-1.9-3.1-3.6-5.5-4c-13.8-2.3-25.8-9-37.5-15.6l-2.2-1.2c-10-5.6-20.3-6.1-31.3-6.7
		c-2.5-0.1-5.1-0.3-7.7-0.5c-0.2,0-0.3,0-0.5,0c-2.3,0-4.3,1.2-6.4,2.5c-0.5,0.3-0.9,0.5-1.4,0.8c-8.5,4.8-17,9.7-25.5,14.5
		c-16.9,9.6-34.4,19.5-51.5,29.4C1318.1,801.6,1313.5,802.9,1308.5,802.9z"/>
	<path class="region" data-region="middle shabelle" d="M768.4,1729.3c-2.5,0-5-1-6.9-2.9c-2.4-2.4-3.7-5.9-3.7-9.7c0-6.7,0.1-13.4,0.3-19.9l0.2-6.4
		c0.4-17.5,0.9-35.7,1.5-53.5c0.2-4.9-1-9-3.9-13c-9.8-13.9-19.4-28.2-28.8-42.1l-2.2-3.2c-5.4-8.1-7.1-17.1-9-26.8
		c-0.8-4.1-1.6-8.2-2.7-12.6c-0.2-0.6,0.1-1.2,0.6-1.6c0.3-0.2,0.6-0.3,0.9-0.3c0.3,0,0.5,0.1,0.8,0.2c10.2,6.3,19.6,7.1,27.6,7.1
		c1.8,0,3.8,0,6.3-0.2c18.3-0.8,36.9-2.2,54.8-3.6c6.9-0.5,13.8-1.1,20.7-1.6c3.7-0.3,7.4-0.6,11.2-0.9c6.5-0.5,13.1-1.1,19.7-1.4
		c6.9-0.4,10.2-3,11.9-9.4c1.6-6.2,3.7-12.2,5.7-18.1c1.4-4,2.8-8.2,4.1-12.3c1.5-4.9,4-9.1,8-13.2c11.7-12,23.5-24.4,34.9-36.3
		c4-4.2,8.1-8.4,12.1-12.6c5.9-6.1,8.5-8.9,12.3-8.9c3.1,0,6.4,2.1,12.4,6l0.1,0.1c24.1,15.7,48.3,31.5,72.4,47.2l19.6,12.7
		c3.9,2.6,6,4.3,6.3,6.7c0.3,2.3-1.2,4.5-4.2,7.7c-1.2,1.3-2.4,2.7-3.6,4l-1.6,1.8l-2.5,3.4c-0.2,0.2-0.4,0.4-0.6,0.5
		c-1,0.8-1.9,1.7-2.9,2.5c-1.2,1.6-3.9,5.5-3.9,5.5c0,0.1-0.1,0.1-0.2,0.2c-1.4,1.3-2.7,2.7-4,4c-0.6,0.6-1.2,1.3-1.9,2l-0.1,0.1
		l-2.5,3.4c-0.1,0.1-0.1,0.1-0.2,0.2c-1.8,3.4-4.5,6-7,8.6c-2.2,2.3-4.3,4.4-5.9,6.9c-1.1,1.7-2.8,3.8-4.8,4
		c-6.6,0.4-9.7,5.4-12.7,10.2c-0.6,0.9-1.1,1.8-1.7,2.7c-6.6,9.8-15.5,16.4-25.6,23.3l-0.3,0.2c-1.2,0.8-2.4,1.6-2.9,2.6
		c-3.8,6.8-9.6,11.6-15.3,16.2c-1.5,1.2-3,2.5-4.4,3.7c-1.2,1.1-2.4,2.1-3.7,3.1c-5,4.3-9.8,8.3-13.4,13.5
		c-1.6,5.3-5.8,7.8-9.8,10.3c-0.4,0.3-0.9,0.5-1.3,0.8c-0.8,0.5-1.6,0.9-2.4,1.2c-2.3,1-3.6,1.7-3.9,3.7c0,0.2-0.1,0.3-0.2,0.5
		l-3,5.2c-0.1,0.1-0.2,0.2-0.3,0.3c-1.4,1.4-2.8,2.7-4.2,4.1c-0.1,0.1-0.1,0.1-0.2,0.2l-0.1,0.1c-1.3,0.9-2.7,1.9-4,2.8
		c-0.1,0-0.1,0.1-0.2,0.1l-2.8,4.3c-0.9,2.3-2.7,3.7-4.3,5.1c-1,0.8-1.9,1.6-2.6,2.5c0,0-0.1,0.1-0.1,0.1c-1.3,1.3-2.7,2.7-4,4
		c-2,2-4,4-6.1,6c0,0-0.1,0.1-0.1,0.1c-1.5,1.2-2.9,2.4-4.4,3.6c-0.3,0.2-0.6,0.3-1,0.3c-0.1,0-0.2,0-0.3,0
		c-0.1,0.1-0.3,0.3-0.4,0.3c-1.5,1.1-2.9,2.2-4.4,3.4c-0.1,0.1-0.2,0.1-0.3,0.2c-0.5,0.2-1,0.4-1.5,0.7c-1.3,1.1-2.6,2.3-3.9,3.4
		c-0.1,0.1-0.2,0.1-0.2,0.2l-11.8,6.7l-0.4,0.3c-1.3,0.9-2.6,1.7-3.9,2.6c0,0-0.1,0-0.1,0.1c-2,1.1-4,2.1-6,3.2
		c-5.5,2.9-11.1,5.9-16.6,9c-1.5,0.8-2.9,1.7-4.4,2.6c-5.1,3.1-10.3,6.3-16.7,7.2c-3.7,0.5-7.4,0.8-11,1.1
		c-7,0.6-14.3,1.1-21.2,3.4C770.6,1729.1,769.5,1729.3,768.4,1729.3z"/>
	<path class="region" data-region="middle juba" d="M306.8,2054.3c-3.7,0-4.6-3.7-5.2-5.9c-1.8-6.9-3.4-13.9-5.1-20.6c-0.8-3.2-1.5-6.3-2.3-9.5
		c-1-3.9-1.8-8-2.6-11.9c-1.8-8.6-3.7-17.5-6.9-25.6c-5.1-12.9-9.1-26.3-12.9-39.3c-3.6-12-7.2-24.5-11.8-36.4
		c-2.4-6.2-4.4-12.7-6.4-19c-0.4-1.3-0.8-2.5-1.2-3.8c-1.2-3.8-3-5.3-7.1-5.7c-2.9-0.3-5.9-0.5-9.2-0.5c-5.9,0-11.8,0.5-17.6,1
		c-2.9,0.2-5.8,0.5-8.7,0.7c-2.7,0.2-5.4,0.2-8.1,0.3c-4.8,0.1-9.7,0.2-14.5,0.9c-9.9,1.5-20.1,2-29.9,2.4
		c-4.8,0.2-9.8,0.5-14.6,0.8c-3.1,0.2-6.3,0.5-9.4,0.7c-13.8,1-28,2.1-42,2.3l-1.9,0c-1.3,0-2.6,0-3.9,0.2l-0.1,0
		c-2.7,0.3-4.6,0.6-6,0.6c-1.2,0-2.7-0.2-3.5-1.3c-1.2-1.6-0.5-3.9,1.1-9l6-18.9c7.2-22.8,14.7-46.3,22.2-69.5
		c0.8-2.5,1.8-5,2.7-7.4c0.8-2.2,1.7-4.4,2.4-6.7c1.2-3.7,3.7-4.9,6.9-5.4c7-1.1,14.3-1.7,22.5-1.7c3.9,0,8.1,0.1,12.6,0.4
		c9.9,0.6,17.8,0.8,25.1,0.8c8.8,0,16.8-0.4,24.4-1.2c6.2-0.7,12.7-1,19.1-1c6.7,0,13.4,0.4,20.1,1.1c10.6,1.1,19.3,8.1,26.6,14.7
		c10.2,9.1,20.2,18.7,29.8,28.1c5.6,5.4,11.4,11.1,17.2,16.5c1.4,1.3,2.8,2.6,4.1,3.9c5.9,5.7,12,11.5,18.8,16.3
		c4.5,3.1,8.6,7.5,12.7,13.2c9.7,13.7,19.1,27.9,28.1,41.6c4.9,7.5,10.1,15.3,15.2,22.8c7.5,11.1,15.5,22.2,23.3,32.9
		c5,7,10.2,14.2,15.3,21.3c2.9,4.1,5.8,8.6,6.7,14c0.1,0.5-0.1,0.9-0.4,1.3c-0.7,0.8-1.5,1.6-2.2,2.4c-0.1,0.1-0.2,0.2-0.4,0.3
		l-1.7,1.8c-0.2,0.2-0.3,0.3-0.5,0.4l-1.6,1.6c-0.1,0.1-0.2,0.2-0.3,0.2l-1.7,1.7c-0.1,0.1-0.3,0.2-0.4,0.3l-2.4,2.1
		c-0.1,0.1-0.1,0.1-0.2,0.2c0,0.4-0.1,0.8-0.4,1.2c-1.6,1.7-3.1,3.4-4.7,5l-1.4,1.9l-2.2,3.2c-0.2,0.3-0.5,0.5-0.9,0.6l-2.3,1.9
		c-0.1,0.1-0.2,0.2-0.4,0.2c-1.6,0.7-1.7,1.1-1.6,1.8c0.1,0.4-0.1,0.9-0.4,1.2c0,0-4.8,5.2-6.9,7.6c-0.1,0.1-0.3,0.3-0.4,0.3
		c-0.5,0.2-1,0.4-1.5,0.6c-1.7,0.7-2.7,1.1-3,2.5c-0.1,0.2-0.2,0.4-0.3,0.6l-4.3,5.3c-0.1,0.1-0.1,0.1-0.2,0.2
		c-0.9,0.8-1,0.9-0.9,1.3c0.1,0.4,0,0.9-0.3,1.2l-0.3,0.4c-0.9,1.1-1.8,2.2-2.6,3.3c-0.2,0.2-0.4,0.4-0.6,0.5
		c-0.3,0.1-0.5,0.2-0.8,0.3c-1.8,0.7-3.3,1.4-3.9,3c0,0,0,0.1-0.1,0.1l-1.6,3.1c-0.2,0.5-0.7,0.8-1.2,0.8
		c-7.2,0.6-14.6,0.7-20.8,0.7c-2,0-4,0-5.9,0c-2,0-3.9,0-5.9,0c-5.7,0-12.5,0.1-19.1,0.6c-1,0.1-2.1,0.1-3.2,0.1
		c-2.1,0-4.2-0.1-6.2-0.3c-2-0.1-4-0.2-6-0.2c-3,0-5.5,0.3-7.8,0.9C308,2054.2,307.4,2054.3,306.8,2054.3z"/>
	<path class="region" data-region="awdal" d="M404.2,403.6c-0.1,0-0.1,0-0.2,0c-0.5-0.1-0.9-0.4-1.1-0.8c-2.8-5.5-4-10.3-3.9-15
		c0.4-12.6-8.3-17.7-17.6-21.2c-1.4-0.6-2.9-0.8-4.1-0.8l-0.5,0c-7.3,0-12-4-14.2-12.2c-2.9-10.5-9.1-19.4-19.6-28
		c-11.5-9.4-19.7-22.3-25.7-40.5c-4.2-12.8-7.9-23.3-14.4-33.1c-3.4-5.2-3.1-11.9,0.8-18.6c6.5-11.1,14.1-21.1,20.1-28.6
		c14.6-18.5,26.8-38.9,38.6-58.7c3-5.1,6.2-10.3,9.3-15.5c2.5-4.2,5-8.5,7.4-12.6c6.1-10.5,12.3-21.5,20.2-31.2
		c0.3-0.3,0.4-1.1,0.5-1.8c0.1-0.5,0.2-0.9,0.3-1.4c0.2-0.6,0.8-1.1,1.4-1.1c0,0,0,0,0.1,0c0.7,0,1.3,0.5,1.4,1.2
		c0.1,0.7,0.3,1.3,0.4,2c0.7,3.9,1.2,6.3,4.5,7.4c2.8,0.9,3.5,2.8,3.8,4.7c0.5,2.7,2.2,4.1,5.1,4.1c0.2,0,0.4,0,0.6,0
		c0.4,0,0.7,0,1,0c3.8,0,7.1,1.3,10,4.1c0.3,0.3,1.1,0.4,1.9,0.5c1.5,0.2,3.7,0.4,4.5,2.8c0.9,2.8,1.7,6.2,0.7,9.7
		c-2.3,8.2,0.4,13.9,8.4,17.6c3,1.4,4.1,3.7,5.1,6l0.6,1.3c3.6,8.1,7.4,16.4,12.1,24.1l0.1,0.2c3.8,6.2,7.3,12,13.3,16
		c2.4,1.6,4.6,3.8,6.1,6c6,9.2,14.3,16.7,22.2,23.9c3.3,3,6.8,6.1,10,9.3c0.2,0.2,0.5,0.5,0.7,0.8c0.3,0.4,0.7,0.8,0.9,0.9
		c7.1,2.9,12.8,7.8,18.3,12.5c3.4,2.9,7,6,10.8,8.5c7.5,4.9,14.4,10.3,20.9,15.5c0.5,0.4,0.7,1.1,0.4,1.7
		c-8.3,20-18.8,38.3-31.1,54.4c-1.2,1.5-2.6,2.3-4.2,2.3c-1.4,0-2.7-0.6-3.9-1.2c-0.3-0.1-0.5-0.3-0.8-0.4
		c-11.7-5.4-23.3-10.8-36.1-16.8l-0.2-0.1c-2.8-1.3-4.6-2.2-5.8-2.2c-1.2,0-2.3,1.3-4.9,4.9c-6.5,8.8-13.1,17.7-19.4,26.4
		c-10,13.7-20.4,27.8-30.8,41.6c-2.9,3.9-5.7,8-8.4,12.1c-4.4,6.5-8.9,13.3-14.3,19.3C405.1,403.4,404.6,403.6,404.2,403.6z"/>
	<path class="region" data-region="gedo" d="M6.5,1891c-1.8,0-3.3-0.5-4.3-1.6c-1.1-1.1-1.6-2.7-1.6-4.9c0-1,0-1.9,0-2.9c0-0.7,0-1.4,0-2.1l0-52.9
		c0-67.8,0-137.9-0.2-206.8c0-7,2-11.7,6.6-16c4.9-4.5,9.7-9.2,14.4-13.8c4.9-4.8,10-9.8,15.1-14.5c18.1-16.6,32.4-36.3,45.2-55.1
		c19.8-29.2,41.7-60.5,67-95.4c1.4-1.9,2.7-3.8,3.9-5.7c3.7-5.5,7.5-11.2,12.9-15.6c0,0,0.1-0.1,0.1-0.1
		c0.3-7.8,5.5-11.7,10.5-15.4c3.3-2.5,6.5-4.8,8.2-8.3c1.9-3.8,6.3-5.8,12.7-5.8c0,0,6.5,0,7.7,0c2.3,0,5.4,0,8.4,0.1
		c2.2,0.1,4.4,0.1,6.6,0.1c11.6,0,23.5-1.2,36.3-3.8c0.1,0,0.2,0,0.3,0l11.8-0.1c7.5-0.3,14.4-3.3,20.2-6.1
		c5.4-2.6,10.7-3.9,16.3-3.9c0.9,0,1.9,0,2.8,0.1c1.1,0.1,2.1,0.1,3.1,0.1c6.6,0,11.9-1.7,16.3-5.1c0.3-0.2,0.6-0.3,0.9-0.3
		c0.1,0,0.2,0,0.4,0c3.5,0.8,4.8,3.4,5.9,5.4c0.2,0.4,0.4,0.7,0.6,1.1c3.9,6.6,7.8,13.4,11.5,20c6.1,10.7,12.5,21.8,19,32.5
		c6.4,10.6,8.5,21.8,6.4,35.2c-2.2,14.4-3,29-2.4,43.2c0.3,6.4-0.5,12.9-1.2,19.1c-0.1,1.3-0.3,2.5-0.4,3.7c-0.9,8-0.6,16.1-0.2,24
		c0.2,6.1,0.5,12.4,0.2,18.7l0,0.7c-0.4,8.6-0.9,9.2-9.5,10.8l-0.5,0.1c-6.7,1.3-13.6,1.9-21.2,1.9c-6.9,0-14.5-0.5-23.7-1.6
		c-8-1-16.3-1.5-24.4-2l-3.2-0.2c-1.5-0.1-2.6-0.2-3.4-0.2c-2.8,0-2.9,0-3.9,5.7c-3.8,20.6-7.8,42.5-11.7,64.6
		c-4,22.4-7.9,44.8-11.8,67.3c-2.8,16.1-5.6,32.3-8.5,48.4c-0.2,1.4-0.6,2.8-1,4.2c-0.2,0.9-0.5,1.8-0.7,2.7
		c-0.7,3-2.6,4.6-5.6,4.6c-2,0-4,0-6,0l-112.8,0.1c-4.4,0-6.6,0-7.8,0.9c-1.2,0.8-1.9,3-3.1,7l-0.3,0.8
		c-5.2,15.9-10.6,32.1-15.8,47.7c-3.1,9.3-6.2,18.6-9.2,27.9l-1.2,3.8c-2.7,8.1-5.4,16.4-7.8,24.6c-1.8,6.2-5.6,9-12.2,9.1
		c-20.8,0.4-38.1,1.6-54.2,3.8C7.6,1890.9,7,1891,6.5,1891z"/>
	<path class="region" data-region="bay" d="M348.2,1850.1c-3,0-5.8-1-8.8-3.3c-6.8-5.2-13-11.2-19-16.9c-2.7-2.6-5.5-5.3-8.4-7.9
		c-16-14.7-28.1-26.2-39-37.2c-5.5-5.5-12.1-10.2-21.4-15.3c-5.3-2.9-7-6.5-5.8-12.8c4.9-26.9,9.7-54.2,14.3-80.7
		c1.8-10.4,3.6-20.7,5.5-31.1l2.1-11.7c3.2-18,6.5-36.7,9.8-55c1.2-6.7,1.8-9.8,7.2-9.8c1.3,0,3,0.2,5,0.4l0.2,0
		c4.2,0.4,8.5,0.9,12.6,1.3c10.5,1.1,21.3,2.3,32,2.6c0.6,0,1.3,0,1.9,0c6.1,0,12.4-0.8,18.5-1.6c3-0.4,6-0.8,9.1-1.1
		c2-0.2,2.8-1.1,2.8-3.1c0-0.3,0-0.7,0-1c0-0.3,0-0.6,0-1c-0.5-14.6,0.2-29.3,1-43.6c0.5-8.6,0.9-17.5,1.1-26.2
		c0.1-6.6,0.6-13.3,1.1-19.8c0.2-3,0.4-6,0.6-9c0-0.5,0.4-1,0.8-1.3c1.1-0.5,2.3-0.8,3.5-0.8c1.8,0,3.4,0.6,4.8,1.1
		c1.2,0.4,2.4,0.8,3.5,0.8c0.2,0,0.3,0,0.5,0c0.1,0,0.1,0,0.2,0c0.3,0,0.7,0.1,0.9,0.3c2.3,1.8,5.1,2.6,8,3.5
		c2.1,0.6,4.3,1.2,6.4,2.3c8,4.1,16.3,6.2,24.8,6.2c6.8,0,13.9-1.3,21.1-3.9c4-1.4,7-2.6,9.6-5.3c9.4-9.5,16.8-19.5,22.4-30.9
		c6.2-12.4,18.8-20,33-20c3.4,0,6.7,0.5,10,1.3c5.3,1.5,10.7,3.1,15.9,4.7c4.5,1.4,9.1,2.8,13.7,4.1c4.7,1.3,7.8,3.9,9.7,8.2
		c5.5,12.5,11.3,25.1,16.8,37.3l1.2,2.6c1.3,2.8,2.4,5.8,2.2,9.3c-0.2,3-0.1,6.1,0,9.2c0.3,8.6,0.6,17.6-5.2,25.7
		c1.6,1,3.1,1.9,4.7,2.9c5,3,9.6,5.9,14.3,8.8c2,1.3,3.6,1.8,5.3,1.8c0.1,0,0.2,0,0.4,0c2.7-0.1,5.4-0.2,8-0.3
		c6.8-0.2,13.7-0.4,20.5-1.7c0.1,0,0.2,0,0.3,0c0.1,0,0.2,0,0.3,0l8.1,1.5c0.3,0.1,0.6,0.2,0.9,0.5c0.3,0.4,0.8,0.7,1.3,1.1
		c1.2,0.9,2.7,2,2.9,4.1c0.5,3.8,1.1,7.7,1.8,11.4c2,11.1,4,22.6,0.5,34.5c-1.7,5.8-2.9,12-4,17.9c-0.4,2.1-0.8,4.2-1.2,6.3
		l-0.1,0.6c-0.3,1.6-0.7,3.3-0.3,4.4c4.5,10.5,2.3,20.9,0.1,30.9c-0.3,1.5-0.6,2.9-0.9,4.4c-3,14.8-3,30.3-0.1,48.8l0,0.2
		c2.8,18.3,2.4,19-14.2,26.3c-14.9,6.5-30.1,13.3-44.8,19.8c-40.2,17.8-81.7,36.3-123.3,52.9c-15.5,6.2-30.6,14.1-45.3,21.8
		c-6.5,3.4-13.2,6.9-19.9,10.2c-11.2,5.6-22.4,11.3-32.9,16.6l-0.2,0.1c-1.3,0.6-2.3,1.2-2.8,2.3c-0.2,0.4-0.5,0.7-1,0.9
		C351,1849.9,349.6,1850.1,348.2,1850.1z"/>
	<path class="region" data-region="sool" d="M1206.9,698.9c-24.9,0-49.8,0-74.7,0c-22.6,0-45.2,0-67.8,0c-5.4,0-8.1-0.3-9.6-2.2c-1.7-2-1.3-5.2-0.5-9.9
		c2.7-16.9,5.5-33.8,8.2-50.7c1.6-9.9,3.2-19.9,4.8-29.8c0.6-3.7,0.4-6.3-2.5-8.1c-0.4-0.2-0.6-0.6-0.7-1.1
		c-1-6.4-4.2-11.7-7.6-17.3c-1.9-3.2-3.9-6.5-5.5-10c-0.4-0.8-1.2-1.2-3-1.5c-1.1-0.2-2.3-0.4-3.4-0.7c-2.2-0.5-4.2-0.9-6.2-0.9
		c-9.9,0-19.9-0.7-29.6-1.4c-6.6-0.5-13.5-0.9-20.2-1.2c-11.5-0.4-23.2-1.1-34.5-1.8c-14.5-0.9-29.4-1.8-44.1-2.1
		c-2.6-0.1-5.4-0.4-6.7-2.3c-1.3-1.9-0.6-4.4,0.1-6.4c7-19.7,3.5-39.6,0-58.8c-0.7-3.7-1.3-7.4-1.9-11.2
		c-4.1-25.3-8.3-51.1-12.5-76c-1.6-9.7-3.2-19.5-4.8-29.2c-2-11.8-3.6-21.5-5.1-30.4c0-0.3-0.1-0.5-0.2-0.8
		c-0.3-1.7-0.8-3.9,0.7-6.4c0.3-0.5,0.8-0.7,1.3-0.7c0.2,0,0.4,0,0.6,0.1c5.8,2.6,10.5,6.6,15,10.6c1.7,1.4,3.4,2.9,5.1,4.3
		c45.6,36,82.2,65.3,115.4,92.1c3.5,2.8,6.9,4.1,11.1,4.1c1.1,0,2.2-0.1,3.3-0.2c12.2-1.7,24.7-2.3,36.8-2.8c5.9-0.3,12-0.6,18-1
		c6.4-0.4,12.8-0.9,19.1-1.3c32.5-2.3,66.2-4.6,99.3-6.1c15-0.7,30.2-1.9,44.9-3c8.1-0.6,16.4-1.2,24.7-1.8
		c11.3-0.8,22.7-1.7,33.7-2.7c10.1-0.9,20.5-1.8,30.8-2.5c12.1-0.8,24.4-1.4,36.4-2c5.2-0.2,10.3-0.5,15.5-0.7
		c0.9,0,1.9-0.1,2.6-0.1l2.1,0c1.9,0,4,0,5.9-0.5c2.1-0.5,3.8-0.8,5.2-0.8c2.1,0,3.6,0.5,4.7,1.7c1.8,1.8,2.1,4.9,2,8.9
		c-0.3,11.9,0.4,24,1.2,35.7c0.5,7.2,0.9,14.7,1.1,22c0.2,5.9-1.5,10.2-5.7,14.3c-19.4,19.2-38.6,38.5-57.1,57.3
		c-3.3,3.3-6.5,4.9-10.1,4.9c-1.2,0-2.5-0.2-3.8-0.5c-0.7-0.2-1.4-0.3-2.1-0.4l-0.7-0.1c-1.7-0.3-3.4-0.5-4.9-0.5
		c-6,0-10.8,2.3-15.7,7.5c-17.2,18.4-35,36.7-52.2,54.5c-7.9,8.1-16,16.5-23.9,24.7c-2.1,2.2-4.1,4.6-6.1,7
		c-0.6,0.7-1.2,1.5-1.8,2.2c2,1,4.1,1.4,6.4,1.9c2,0.4,4,0.8,6.1,1.6c0.4,0.2,0.8,0.5,0.9,1c0.1,0.4,0.1,0.9-0.2,1.3
		c-3.8,5.7-8.8,10.3-13.5,14.7c-4.5,4.2-8.7,8.1-12.1,12.9c-0.1,0.2-0.3,0.3-0.4,0.4c-3.6,2.3-7.7,2.5-11.2,2.5H1206.9z"/>
	<path class="region" data-region="hiraan" d="M754.2,1543.6c-4.1,0-8.3-0.1-12.3-0.2c-3.9-0.1-8-0.2-12-0.2c-1,0-3-0.1-4.6-1.1
		c-13.2-7.8-28.2-8.2-42.7-8.6c-2.3-0.1-4.6-0.1-6.8-0.2c-11-0.4-12.5-1.7-14.4-12.3c-0.5-3-0.6-6.1-0.6-9.1
		c0-4.9-0.1-9.7-0.1-14.5c0-7.7,0-15.7-0.2-23.5c-0.3-14.6,0.8-25.7,3.5-36c1.4-5.2,1.3-10.9-0.2-17.1
		c-11.9-47.9-20.7-96.6-27.1-133.7c-1.6-9.3-3.3-18.7-4.9-27.8l-2-11.4c0-0.2,0-0.5,0-0.7c1.1-3.4,3.5-3.8,5.2-3.8
		c0.6,0,1.2,0.1,1.8,0.1c10.4,1,20.7,1.1,29.4,1.1c3.5,0,7,0,10.5,0c3.5,0,7,0,10.5,0c2.4,0,4.9,0,7.3,0l0.1,0c3.4,0,5.3-2,7.6-4.4
		l0.4-0.4c7.7-7.9,15.4-15.9,23.1-23.8c12.9-13.3,25.9-26.6,38.8-39.9c5.5-5.7,11.1-11.5,16.4-17.2c2.5-2.7,5.1-5.4,7.6-8
		c0.3-0.3,0.6-0.4,0.9-0.5c0.4,0,0.6-0.2,0.8-0.7c0.1-0.2,0.2-0.4,0.4-0.6l0.2-0.2c0.3-0.3,0.7-0.4,1.1-0.4c0.1,0,0.2,0,0.3,0
		c4.6,0.9,6,4.6,7.1,7.6c0.3,0.8,0.6,1.5,0.9,2.2c7.1,14.9,13.9,29.8,20.4,44.2c2.2,4.9,5.3,7.4,10.6,8.5c13.4,2.9,27,6.4,40,9.8
		l2.4,0.6c3,0.8,5.7,1.2,8.4,1.2c2.8,0,5.6-0.4,8.3-1.3c5.3-1.7,10.9-2.9,16.2-4.1l1.2-0.3c0.5-0.1,1.3-0.3,2.2-0.3
		c2,0,3,0.7,3.5,1.4c0.4,0.5,0.8,1.5,0.5,2.9c-0.6,2.5-0.7,5.1-0.9,7.9c-0.2,4.6-0.5,9.3-3,13.8c-4.9,8.6-9.2,17.8-12.9,25.7
		c-3.5,7.5-3.4,13.5,0.4,18.7c0.2,0.2,0.3,0.5,0.3,0.9l0.1,4.5c0,0.1,0,0.3,0,0.4l-0.2,0.8c-1,3.5-1.4,5.6,1.2,7.4
		c0.5,0.2,0.9,0.4,1.4,0.7c0.4,0.3,0.6,0.7,0.6,1.2c0,0,0,0.1,0,0.1c0,0.1,0,0.2-0.1,0.3l-1,3.5c0,0.1,0,0.1-0.1,0.2
		c-1.4,3.1-0.7,6.1,0.1,9.4c0.5,2.1,1,4.2,1,6.4c-0.1,4.3,1.6,7.4,5.5,10.5c3,2.3,5.9,4.6,8.8,6.9c5,3.9,10.1,8,15.3,11.8
		c9.9,7.3,17.8,14.4,14.7,27.7c0.1,0.1,0.1,0.2,0.2,0.3c0.2,0.3,0.3,0.5,0.4,0.7c0.1,0.1,0.1,0.3,0.1,0.4c0.9,7,0.9,13.3,0,19.4
		c0,0.1-0.1,0.3-0.1,0.4c-2.1,4.7-3,9.3-2.5,13.7c0.7,6.9-2.6,11.4-6.4,15.2c-10.6,10.8-21.3,21.9-31.6,32.6
		c-7.1,7.4-14.5,15.1-21.8,22.6c-2.4,2.5-4,5.2-5.2,8.7c-1.7,5.2-3.5,10.5-5.2,15.6c-1.9,5.7-3.9,11.6-5.8,17.5
		c-1.5,4.9-3.8,8.2-10.1,8.8c-2.1,0.2-4.2,0.4-6.2,0.7c-2.8,0.3-5.7,0.7-8.6,0.9c-21.6,1.5-46.8,3.2-71.3,5.4
		C766,1543.4,760.7,1543.6,754.2,1543.6z"/>
	<path class="region" data-region="togdheer" d="M1048.7,696.5c-1.7,0-3.8-0.6-6.6-1.5c-16.6-5.4-33.3-11.1-49.6-16.6c-6.5-2.2-12.9-4.4-19.4-6.6
		c-10.4-3.5-20.8-7-31.2-10.5c-22.6-7.6-45.9-15.5-68.9-23.2c-31.7-10.6-63.9-21.2-95.1-31.5c-10.9-3.6-21.8-7.2-32.6-10.8
		c-22-7.3-44.1-14.6-66.1-21.9l-29.5-9.7c-0.2-0.1-0.4-0.2-0.5-0.3c-3.3-3.1-3.2-6.9-3-10.3c0-0.7,0.1-1.4,0.1-2.1
		c0-11.1,0-22.3,0-33.4c0-13,0-26.4,0-39.5c0-6.6,0.7-12.5,2.2-18.1c7.2-27.4,14.1-54.7,20.8-81.2c1.2-4.6,2.9-8.2,5.6-11.2
		c12.1-13.8,24.6-28.2,37.2-42.9c3.5-4,7.3-5.9,12.2-5.9c0.7,0,1.4,0,2.1,0.1c10.9,1.1,21.9,1.9,32.6,2.8c4.3,0.3,8.6,0.7,13,1
		l11.7,0.7c0.1,0,0.2,0,0.3,0c5.8,1.6,12,1.9,18,2.2c3.7,0.2,7.6,0.4,11.4,0.9c7,0.9,14.1,1.5,21,2c7.4,0.6,15.1,1.2,22.6,2.2
		c3,0.4,5.5,0.7,7.7,1c11.9,1.4,12.4,1.9,13.7,12.3c0.3,2.2,0.6,4.9,1.2,8.3c3.8,23.1,7.7,46.5,11.5,69.1
		c1.6,9.7,3.3,19.4,4.9,29.1c1.1,6.3,2.1,12.6,3.1,19c2.5,15.4,5.1,31.3,8.1,46.9c1.3,6.7,0,12.8-1.2,18.7
		c-0.5,2.6-1.1,5.4-1.4,8.1c-0.1,0.6-0.3,1.1-0.4,1.4c-0.1,0.2-0.2,0.4-0.2,0.6c-0.5,2.4-0.9,4.3-1.3,6.1c-0.8,3.5-1.4,6.3-0.9,7
		c0.5,0.7,3.3,0.9,7.1,1.2c1.7,0.1,3.7,0.3,6,0.5c13.2,1.3,26.7,1.7,39.8,2.1c7.5,0.2,15.2,0.4,22.8,0.8
		c10.7,0.6,21.6,1.2,32.2,1.9c10.6,0.7,21.6,1.4,32.5,1.9c5,0.3,8.3,2.3,11.4,7.2c2.1,3.3,3.8,6.8,5.5,10.3
		c2.3,4.7,4.4,9.1,7.5,13.1c0.2,0.2,0.3,0.5,0.3,0.7c1.2,9.2-0.6,18.1-2.3,26.8c-0.8,3.9-1.6,8-2.1,12c-1.4,11.1-3.2,22.3-5,33.2
		c-0.9,5.3-1.8,10.7-2.6,16C1054,692.2,1053.3,696.5,1048.7,696.5z"/>
	<path class="region" data-region="lower shabelle" d="M440.1,1988c-0.5,0-1-0.2-1.2-0.7c-10.1-14.8-20.5-29.8-30.6-44.3c-19-27.3-38.6-55.6-57.1-84
		c-0.4-0.6-1-1.1-1.6-1.6c-0.3-0.3-0.7-0.6-1-0.9c-0.3-0.3-0.5-0.8-0.4-1.3c0.1-0.9-0.2-1.1-0.4-1.2c-0.4-0.2-0.7-0.6-0.8-1
		c-0.1-0.4,0-0.9,0.3-1.2l2.1-2.6c0.2-0.3,0.5-0.6,0.9-0.7c0.4-0.1,0.8-0.3,1.1-0.6c0.3-0.3,0.7-0.4,1-0.4c0,0,0.1,0,0.1,0
		c1.5,0,2.8-0.7,4.2-1.5c0.5-0.3,1-0.5,1.5-0.8c5.8-2.8,11.4-5.7,16.9-8.5c46.3-23.8,92.7-45.1,137.8-63.4
		c29.9-12.1,59.8-25.7,88.7-38.9c9.7-4.4,19.8-9,29.7-13.5c1.4-0.6,2.6-1.1,3.5-1.5c1.9-0.8,3.2-1.3,3.4-1.8
		c0.3-0.5,0.2-1.9-0.1-4.1c-0.1-1.2-0.3-2.6-0.4-4.4c-0.5-6.7-1.5-13.4-2.5-20c-0.3-1.9-0.6-3.7-0.8-5.6
		c-1.5-10.5,0.1-20.7,1.6-30.7c0.4-2.4,0.7-4.9,1.1-7.3c0.3-2.3,0.7-4.5,1.1-6.7c1.4-7.8,2.8-15.2-0.1-22.8c-0.8-2.2-0.5-4.8-0.1-7
		c0.1-0.5,0.1-1,0.2-1.5c0.3-2.4,0.9-4.8,1.5-7c5.4-19.1,6.1-36.8,2.3-54.1c-1-4.5-1.2-6.8-0.1-8.5c1.3-2,4-2.4,8.5-3.2
		c4.6-0.8,9.4-1.2,14.9-1.2c6.1,0,12.2,0.5,18.1,0.9c2.9,0.2,6,0.5,9,0.6c0.6,0,1.2,0.2,1.8,0.3c0.4,0.1,0.8,0.2,1.2,0.2
		c0.4,0,0.8,0,1.3,0c1,0,2.1-0.1,3.2-0.1c1.1-0.1,2.3-0.1,3.4-0.1c2.7,0,6.1,0.4,8.4,3.1c3,3.5,3.7,8.9,4.3,13.8l0.1,1.1
		c2.2,17.1,11.2,30.8,19.7,41.9c5.2,6.8,10,14,14.6,21c1.9,2.9,3.8,5.8,5.8,8.6c2.7,3.9,3.8,8.3,3.5,13.2
		c-1.1,15.2-0.8,30.7-0.5,45.7c0,2.3,0.1,4.6,0.1,7c0.1,4.9-0.4,9.8-0.9,14.5c-0.4,4-0.8,8.2-0.9,12.3c-0.1,5.1,0.1,8.4,4.7,9.6
		c1.6,0.4,2.6,1.2,3.2,2.2c0.8,1.4,0.4,3,0,4.2c-0.2,0.7-0.4,1.5-0.3,1.9c0.2,0.6,0.1,1.3-0.4,1.7l-0.1,0.1
		c-0.2,0.1-0.4,0.3-0.6,0.3c-2.9,0.8-4.4,2.8-4.8,6.6c0,0.3-0.1,0.5-0.3,0.8c-0.1,0.2-0.4,0.5-0.8,0.7c-0.3,0.1-0.7,0.2-1,0.3
		c-0.3,0.1-0.6,0.2-0.8,0.2c-9.6,15.6-24.7,22.2-42,28.6c-0.8,0.3-1.6,0.9-2.5,1.5c-0.4,0.3-0.9,0.6-1.3,0.9
		c-0.1,0.1-0.2,0.1-0.3,0.2c-0.3,0.1-0.7,0.2-1,0.3c-1.1,0.3-1.8,0.5-2.2,1.1c-0.1,0.2-0.3,0.3-0.5,0.5c-2,1.2-4.1,2.3-6.2,3.4
		c-8.3,4.5-16.8,9.2-23.5,16.2c-0.1,0.1-0.3,0.3-0.5,0.3c-10,4.3-17.5,9.3-23.4,15.7c-0.1,0.1-0.3,0.3-0.5,0.3
		c-5.2,2.3-9.6,6.1-13.6,9.7c-0.2,0.1-0.3,0.2-0.5,0.3c-2.3,0.8-4.1,1.9-5.3,3.5c-0.3,0.3-0.6,0.5-1.1,0.6c-2,0.1-3.3,1.3-4.9,3.4
		c-0.2,0.3-0.5,0.4-0.8,0.5c-3.4,1-5.9,2.2-7,5.1c-0.1,0.2-0.2,0.4-0.3,0.5l-2,2c-0.2,0.2-0.4,0.3-0.6,0.4c-1.6,0.5-2.5,1.4-3,3
		c-0.1,0.5-0.5,0.9-1,1c-2.2,0.6-3.9,1.8-5.2,3.5c-0.2,0.3-0.5,0.4-0.8,0.5c-3.6,1.1-6,2.2-7,5.1c-0.1,0.4-0.4,0.7-0.8,0.8
		c-11.3,5.3-19.5,14.3-25.5,21.6c-0.2,0.3-0.5,0.5-0.9,0.5c-3.5,0.7-5.6,2.8-6.8,7c-0.1,0.4-0.4,0.7-0.7,0.9
		c-1.2,0.6-2.5,1.2-3.7,1.7c-3.9,1.7-7.7,3.3-9.5,7.4c-0.6,3.1-2.8,4.9-4.8,6.5c-1.4,1.1-2.7,2.2-3.3,3.6c-0.1,0.2-0.2,0.3-0.3,0.5
		l-2,2l-2,2c-2.9,3.2-6.5,5.7-10,8.1c-4.6,3.1-8.9,6.1-11.9,10.8c-1.6,2.6-4.2,3.9-6.7,5.3c-2,1.1-4,2.1-5.3,3.7
		c-0.2,0.2-0.4,0.3-0.6,0.4c-11.6,4.2-20.5,11.8-27.2,23.3c-0.2,0.3-0.5,0.6-0.8,0.7c-4.8,1.5-10.2,3.8-13.1,9.3
		c-0.1,0.1-0.2,0.2-0.3,0.3l-2,2l-2,2c-0.2,0.2-0.5,0.3-0.8,0.4c-3.4,0.6-5.5,2.8-6.8,7c-0.1,0.2-0.2,0.4-0.4,0.6l-2,2l-2,2
		c-0.2,0.2-0.5,0.3-0.8,0.4l-6,1.1C440.3,1988,440.2,1988,440.1,1988z"/>
	<path class="region" data-region="bakool" d="M640.9,1535.4c-1.9,0-3.7-0.2-5.4-0.8c-0.1,0-0.2-0.1-0.3-0.2c-2-1.2-4.2-1.7-6.9-1.7c-1.7,0-3.5,0.2-5.3,0.4
		c-1.7,0.2-3.4,0.4-5.1,0.4c-1.1,0-2.2-0.1-3.3-0.2c-1.2-0.1-2.3-0.2-3.5-0.2c-1.1,0-2,0.1-2.9,0.3c-1.6,0.3-3.2,0.5-4.8,0.5
		c-7.6,0-13.5-4-19.2-7.8c-1.4-0.9-2.8-1.9-4.2-2.8c-2.6-1.6-3.5-3.9-3-7.3c2.8-18.8,4.4-35.7-4.7-52c-3.9-7-7-14.5-10.1-21.8
		c-0.9-2.2-1.8-4.3-2.7-6.5c-1.7-4-3.8-6-7.3-6.9c-4.7-1.3-9.3-2.8-13.9-4.2c-6.3-2-12.9-4.1-19.4-5.7c-2.7-0.7-5.5-1-8.3-1
		c-4.6,0-9.3,0.9-14.1,2.8c-11.4,4.4-17.1,12.6-24,23.8l-1.6,2.6c-12.5,20.4-15.9,25.9-40,30.2c-0.2,0-0.5,0.1-0.8,0.1
		c-0.4,0-0.7,0.1-0.9,0.2c-2.1,0.8-4.1,1.3-6.4,1.3c-3.4,0-6.7-1-9.2-1.9c-6.6-2.3-13.4-4.6-19.9-6.7c-2.8-0.9-5.6-1.8-8.3-2.7
		c-0.2-0.1-0.3-0.1-0.4-0.2c-1.4-1-3.1-1.5-5-2.1c-2.7-0.8-5.7-1.6-7.6-4.3c-2.1-3.1-1.2-6.3-0.4-9.1c0.5-1.8,1-3.5,0.7-5.1
		c-0.2-1.2-0.1-2.5,0.3-3.7c3.3-10.6-1-19.3-7-29.6c-3.5-6.1-7.1-12.2-10.6-18.3c-6.8-11.8-13.9-24.1-21-36
		c-2.4-4.1-3.1-7.6,1.2-12.1c8.5-9,17.6-20.2,19.8-35.1c0.5-3.4,2.4-6.4,5.2-8.5c1.2-0.9,2.4-1.8,3.6-2.8c2.2-1.7,4.5-3.5,6.9-5
		c25.8-15.7,57.1-32.8,93.1-40.9c6.1-1.4,12.2-2.9,18.2-4.4c13.7-3.4,27.9-6.9,42.1-8.8l0.2,0c7.7-1,15.6-2.1,23.6-2.1
		c3.6,0,6.9,0.2,10.2,0.6c2.9,0.4,5.9,0.6,8.8,0.6c1.3,0,2.6,0,3.9-0.1c2.1-0.1,4.4-0.2,6.7-0.2c7,0,14.1,0.6,21,1.1
		c6.8,0.6,13.8,1.1,20.7,1.1c0.8,0,1.6,0,2.5,0l0.3,0c6.2,0,7,4.7,7.4,7.2c1.3,7.6,2.6,15.2,3.9,22.8c2.8,16.6,5.7,33.7,8.6,50.6
		c5.1,29.3,11.6,60.1,20,94.2c2.5,10,0.9,19.4-0.6,28.5c-0.2,1.5-0.5,3-0.7,4.5c-1.8,11.6-1.9,24.1-0.4,39.3
		c0.9,8.6,0.8,17.2,0.6,25.6c-0.1,3.7-0.1,7.6-0.1,11.3c0,3.8-1.9,6.2-5.3,6.4c-2.1,0.2-4.2,0.6-6.4,1
		C646.7,1534.8,643.8,1535.4,640.9,1535.4z"/>
	<path class="region" data-region="mudug" d="M1194.3,1348c-0.7,0-1.3-0.5-1.5-1.2c-0.3-1.2-1.2-1.7-2.9-2.4l-0.6-0.3c-3.6-1.6-7.2-3.2-10.8-4.8
		c-8.1-3.6-16.5-7.3-24.8-11c-1.6-0.7-3.2-1.2-5-1.8c-4.3-1.4-8.8-2.8-11.4-6.7c-3-4.5-1.6-9.8-0.3-14.5c0.5-1.7,0.9-3.4,1.2-5
		c3.9-26,8.6-56.1,13.5-85.5c2-11.9,3.3-23.5-2.9-34.8c-1.9-3.4-3.1-7.3-4.2-11c-0.2-0.8-0.5-1.6-0.7-2.4
		c-6.1-18.9-15.2-43.4-32-64.3c-3.5-4.4-2.3-8.3-0.7-11.6c5.4-11.1,10.7-22.4,15.8-33.4c2-4.2,3.9-8.4,5.9-12.5
		c1.7-3.6,3.4-7.2,5.1-10.8c3.6-7.7,7.4-15.7,11-23.5c0.8-1.7,1.6-3.8,1.3-4.6c-0.3-0.7-1.8-1.3-3.1-1.7c-0.9-0.3-1.9-0.5-2.9-0.7
		c-0.6-0.1-1.2-0.2-1.8-0.4l-67.1-15c-7.8-1.7-15.6-3.5-23.4-5.2c-24.2-5.4-49.3-11-73.9-16.7c-1.2-0.3-2.2-0.4-3-0.4l-0.1,0
		c-0.5,0-1,0-1.5,0.1c-0.1,0-0.2,0-0.3,0c-0.5,0-1-0.3-1.3-0.8c-0.3-0.6-0.2-1.3,0.3-1.8l20.5-20.5c0.2-0.2,0.5-0.4,0.8-0.4
		l0.3-0.6c0.1-0.1,0.2-0.3,0.3-0.4l164.2-164.9c0.3-0.3,0.7-0.4,1.1-0.4c0.1,0,0.3,0,0.4,0.1c0.2,0.1,0.4,0.1,0.6,0.1
		c13.6,2.2,27.3,4.4,40.9,6.5c33.6,5.4,68.4,10.9,102.6,16.6c1.7,0.3,3.2,0.4,4.8,0.4c4.4,0,8.4-1.2,13-3.8
		c17-9.9,34.5-19.8,51.3-29.4c8.6-4.8,17.1-9.7,25.7-14.6c0.4-0.3,0.9-0.5,1.3-0.8c2.4-1.4,4.9-2.9,8-2.9c0.3,0,0.5,0,0.8,0
		c2.5,0.2,5.1,0.3,7.6,0.5c10.8,0.6,22,1.1,32.6,7.1l2.2,1.2c11.4,6.4,23.2,13.1,36.5,15.3c3.4,0.6,5.5,2.9,7.3,5
		c0.2,0.3,0.4,0.5,0.6,0.7c2.7,3.1,5.5,6.3,8.1,9.4c2.4,2.9,4.9,5.8,7.4,8.7c0.3,0.3,0.5,0.6,0.8,1c0.8,1,1.3,1.7,2,1.7l0,0
		c0.3,0,0.6-0.1,1-0.3c0.2-0.1,0.5-0.2,0.7-0.2c0.4,0,0.7,0.1,1,0.4c0.5,0.4,0.6,1.1,0.3,1.7c-4.7,10.4-10.1,21.2-19.4,29.2
		c-4.3,3.6-7.1,8.2-9.2,12.1c-4.8,8.8-9.9,16-15.7,22.2c-5.5,6-9.6,13.4-13.2,20.5c-2.1,4.1-4.5,8.1-6.8,11.9
		c-2.9,4.8-5.9,9.8-8.2,14.9c-5.5,12.5-11.1,25.3-16.4,37.6c-3.9,8.9-7.8,18.2-11.8,27.3c-2.3,5.3-1.6,10.7-0.7,14.8
		c2.7,12.8-0.1,25.7-8.1,37.1c-6.2,8.8-11.1,18.4-15.9,27.7c-3.5,6.9-7.2,14.1-11.4,20.8c-1.4,2.2-2.7,4.5-4.1,6.7
		c-6.5,10.7-13.1,21.7-20.9,31.8c-4.7,6.2-8.2,13.3-11.5,20.1l-1,2.1c-3.5,7.2-7.6,14.5-15.1,19.2c-1.4,0.9-2.5,1.9-2.9,2.9
		c-3.7,7.9-9,14.7-14.1,21.3c-2.7,3.5-5.5,7.1-8,10.8c-2.6,3.8-5.2,7.1-8.1,10.3c-21.8,23.2-36.9,51.1-48.9,75.4
		c-5.8,11.7-12,23.2-18.4,34.3c-3.5,6.1-8.4,11.1-13.2,15.9c-3.3,3.4-6.7,6.9-9.6,10.7c-0.6,0.8-1.1,1.8-1.7,2.8
		c-1.6,2.9-3.4,6.2-7.8,6.9C1194.5,1348,1194.4,1348,1194.3,1348z"/>
	<path class="region" data-region="banadir" d="M761,1748.5c-0.4,0-0.8-0.1-1-0.4c-0.5-0.4-0.6-1.1-0.3-1.7l5-11c0-0.1,0.1-0.1,0.1-0.2l4-6
		c0.3-0.4,0.7-0.7,1.2-0.7h26c0.7,0,1.3,0.5,1.5,1.2c0.2,0.7-0.2,1.4-0.8,1.7l-35,17C761.4,1748.5,761.2,1748.5,761,1748.5z"/>
	<circle class="region" cx="1160" cy="2210" r="30" data-region="UNKNOWN"></circle>
</g>
<g id="label">
	<text transform="matrix(1 0 0 1 230 280)" class="label" data-region="awdal">Awdal</text>
	<text transform="matrix(1 0 0 1 75 490)" class="label" data-region="woqooyi galbeedd">Woqooyi Galbeed</text>
	<text transform="matrix(1 0 0 1 660 650)" class="label" data-region="togdheer">Togdheer</text>
	<text transform="matrix(1 0 0 1 980 280)" class="label" data-region="sanaag">Sanaag</text>
	<text transform="matrix(1 0 0 1 1090 560)" class="label" data-region="sool">Sool</text>
	<text transform="matrix(1 0 0 1 1500 340)" class="label" data-region="bari">Bari</text>
	<text transform="matrix(1 0 0 1 1500 725)" class="label" data-region="nugaal">Nugaal</text>
	<text transform="matrix(1 0 0 1 1290 1000)" class="label" data-region="mudug">Mudug</text>
	<text transform="matrix(1 0 0 1 715 1100)" class="label" data-region="galgaduud">Galgaduud</text>
	<text transform="matrix(1 0 0 1 700 1430)" class="label" data-region="hiran">Hiran</text>
	<text transform="matrix(1 0 0 1 850 1630)" class="label" data-region="middle shabelle">Middle Shabelle</text>
	<text transform="matrix(1 0 0 1 995 1800)" class="label" data-region="banadir">Banadir</text>
	<text transform="matrix(1 0 0 1 460 1910)" class="label" data-region="lower shabelle">Lower Shabelle</text>
	<text transform="matrix(1 0 0 1 350 1700)" class="label" data-region="bay">Bay</text>
	<text transform="matrix(1 0 0 1 30 1560)" class="label" data-region="gedo">Gedo</text>
	<text transform="matrix(1 0 0 1 320 1320)" class="label" data-region="bakool">Bakool</text>
	<text transform="matrix(1 0 0 1 560 2130)" class="label" data-region="middle juba">Middle Juba</text>
	<text transform="matrix(1 0 0 1 130 2230)" class="label" data-region="lower juba">Lower Juba</text>
	<text transform="matrix(1 0 0 1 1230 2230)" class="label" data-region="UNKNOWN">Unknown</text>
	<line class="line" x1="371" y1="1987" x2="512" y2="2085"/>
	<line class="line" x1="779" y1="1747" x2="959" y2="1780"/>
</g>
</svg>
